<svg width="27" height="27" viewBox="0 0 27 27" fill="none" xmlns="http://www.w3.org/2000/svg">
<path d="M18.33 18.48L20.57 16.24C20.8717 15.942 21.2534 15.7381 21.6688 15.6529C22.0842 15.5676 22.5154 15.6049 22.91 15.76L25.64 16.85C26.0388 17.0119 26.3808 17.2882 26.6228 17.6441C26.8648 18 26.9961 18.4196 27 18.85V23.85C26.9977 24.1428 26.9361 24.432 26.8191 24.7004C26.702 24.9688 26.5318 25.2107 26.3188 25.4115C26.1058 25.6124 25.8544 25.7681 25.5796 25.8692C25.3048 25.9704 25.0124 26.0148 24.72 26C5.59001 24.81 1.73001 8.60998 1.00001 2.40998C0.966125 2.10552 0.997086 1.79733 1.09086 1.50569C1.18463 1.21405 1.33909 0.945572 1.54408 0.717916C1.74906 0.490259 1.99993 0.308585 2.28017 0.184844C2.56041 0.0611026 2.86367 -0.00190019 3.17001 -2.01661e-05H8.00001C8.43102 0.00125562 8.85179 0.131447 9.20821 0.373809C9.56462 0.616171 9.84038 0.95962 10 1.35998L11.09 4.08998C11.2503 4.48305 11.2912 4.91462 11.2076 5.33079C11.124 5.74696 10.9196 6.12928 10.62 6.42998L8.38001 8.66998C8.38001 8.66998 9.67001 17.4 18.33 18.48Z" fill="currentColor"/>
</svg>
